<svg width="35" height="27" viewBox="0 0 35 27" fill="none" xmlns="http://www.w3.org/2000/svg">
<path d="M14.5468 16.9141H3.10525V17.5071C3.10525 19.9722 3.6285 21.8559 4.67499 23.1582C5.72147 24.4372 7.02377 25.0767 8.58187 25.0767C10.9074 25.0767 12.5818 24.1465 13.605 22.2861L14.1283 22.5652C12.919 24.9139 10.8958 26.0883 8.05863 26.0883C5.96565 26.0883 4.175 25.3325 2.68666 23.8209C1.19832 22.3093 0.454154 20.2745 0.454154 17.7164C0.454154 15.1351 1.1053 13.0189 2.4076 11.3677C3.73315 9.71662 5.48892 8.89106 7.67491 8.89106C9.88416 8.89106 11.5818 9.64686 12.7678 11.1584C13.9538 12.6468 14.5468 14.5653 14.5468 16.9141ZM7.77956 9.58872C6.43076 9.58872 5.36102 10.1701 4.57034 11.3329C3.80291 12.4724 3.33781 13.9956 3.17502 15.9025H11.8609C11.6981 11.6933 10.3376 9.58872 7.77956 9.58872ZM28.4351 21.8675C28.0631 23.0768 27.4235 24.0884 26.5166 24.9023C25.6329 25.693 24.5399 26.0883 23.2376 26.0883C21.9586 26.0883 20.8888 25.8325 20.0284 25.3209C19.1679 24.8093 18.5051 24.1349 18.04 23.2977C17.1098 21.6931 16.6447 19.7396 16.6447 17.4374C16.6447 15.1351 17.4354 13.1351 19.0168 11.4375C20.5981 9.73988 22.7143 8.89106 25.3655 8.89106C26.5282 8.89106 27.5863 9.03059 28.5398 9.30966V5.99578C28.5398 4.25163 28.4817 3.07724 28.3654 2.47261C28.2491 1.84471 28.0631 1.461 27.8073 1.32147C27.3421 1.04241 26.6096 0.902877 25.6096 0.902877L25.5399 0.519163C27.2142 0.240101 29.0282 0.10057 30.9816 0.10057V17.9955C30.9816 20.5768 31.063 22.2745 31.2258 23.0884C31.3886 23.8791 31.7839 24.2744 32.4118 24.2744C32.8071 24.2744 33.3304 24.1116 33.9815 23.7861L34.1559 24.1349C33.9699 24.2744 33.7257 24.4488 33.4234 24.6581C33.1211 24.8442 32.5048 25.1 31.5746 25.4256C30.6444 25.7511 29.7491 25.9139 28.8886 25.9139C28.5863 24.6581 28.4351 23.3093 28.4351 21.8675ZM20.133 22.4605C20.4121 23.2279 20.8423 23.8442 21.4237 24.3093C22.0283 24.7744 22.7492 25.007 23.5864 25.007C24.4469 25.007 25.2143 24.7163 25.8887 24.1349C26.5864 23.5535 27.1096 22.8093 27.4584 21.9024C28.1793 20.1582 28.5398 18.356 28.5398 16.4955V11.1584C27.5398 10.3678 26.4468 9.97243 25.2608 9.97243C24.0748 9.97243 23.0864 10.2282 22.2958 10.7399C21.5051 11.2515 20.9004 11.9259 20.4818 12.7631C19.6912 14.3212 19.2958 15.9839 19.2958 17.7513C19.2958 19.449 19.5749 21.0187 20.133 22.4605Z" fill="white"/>
</svg>
