<svg width="114" height="46" viewBox="0 0 114 46" fill="none" xmlns="http://www.w3.org/2000/svg">
<path d="M15.5468 23.9141H4.10525V24.5071C4.10525 26.9722 4.6285 28.8559 5.67499 30.1582C6.72147 31.4372 8.02377 32.0767 9.58187 32.0767C11.9074 32.0767 13.5818 31.1465 14.605 29.2861L15.1283 29.5652C13.919 31.9139 11.8958 33.0883 9.05863 33.0883C6.96565 33.0883 5.175 32.3325 3.68666 30.8209C2.19832 29.3093 1.45415 27.2745 1.45415 24.7164C1.45415 22.1351 2.1053 20.0189 3.4076 18.3677C4.73315 16.7166 6.48892 15.8911 8.67491 15.8911C10.8842 15.8911 12.5818 16.6469 13.7678 18.1584C14.9538 19.6468 15.5468 21.5653 15.5468 23.9141ZM8.77956 16.5887C7.43076 16.5887 6.36102 17.1701 5.57034 18.3329C4.80291 19.4724 4.33781 20.9956 4.17502 22.9025H12.8609C12.6981 18.6933 11.3376 16.5887 8.77956 16.5887ZM29.4351 28.8675C29.0631 30.0768 28.4235 31.0884 27.5166 31.9023C26.6329 32.693 25.5399 33.0883 24.2376 33.0883C22.9586 33.0883 21.8888 32.8325 21.0284 32.3209C20.1679 31.8093 19.5051 31.1349 19.04 30.2977C18.1098 28.6931 17.6447 26.7396 17.6447 24.4374C17.6447 22.1351 18.4354 20.1351 20.0168 18.4375C21.5981 16.7399 23.7143 15.8911 26.3655 15.8911C27.5282 15.8911 28.5863 16.0306 29.5398 16.3097V12.9958C29.5398 11.2516 29.4817 10.0772 29.3654 9.47261C29.2491 8.84471 29.0631 8.461 28.8073 8.32147C28.3421 8.04241 27.6096 7.90288 26.6096 7.90288L26.5399 7.51916C28.2142 7.2401 30.0282 7.10057 31.9816 7.10057V24.9955C31.9816 27.5768 32.063 29.2745 32.2258 30.0884C32.3886 30.8791 32.7839 31.2744 33.4118 31.2744C33.8071 31.2744 34.3304 31.1116 34.9815 30.7861L35.1559 31.1349C34.9699 31.2744 34.7257 31.4488 34.4234 31.6581C34.1211 31.8442 33.5048 32.1 32.5746 32.4256C31.6444 32.7511 30.7491 32.9139 29.8886 32.9139C29.5863 31.6581 29.4351 30.3093 29.4351 28.8675ZM21.133 29.4605C21.4121 30.2279 21.8423 30.8442 22.4237 31.3093C23.0283 31.7744 23.7492 32.007 24.5864 32.007C25.4469 32.007 26.2143 31.7163 26.8887 31.1349C27.5864 30.5535 28.1096 29.8093 28.4584 28.9024C29.1793 27.1582 29.5398 25.356 29.5398 23.4955V18.1584C28.5398 17.3678 27.4468 16.9724 26.2608 16.9724C25.0748 16.9724 24.0864 17.2282 23.2958 17.7399C22.5051 18.2515 21.9004 18.9259 21.4818 19.7631C20.6912 21.3212 20.2958 22.9839 20.2958 24.7513C20.2958 26.449 20.5749 28.0187 21.133 29.4605Z" fill="white"/>
<path d="M53.5722 30.7732C53.5411 30.6801 53.417 30.4007 53.2618 29.9972C53.1997 29.7799 53.1376 29.5005 53.0134 29.1901C52.9203 28.9728 52.7341 28.7245 52.6409 28.4451C52.5478 28.1967 52.4547 27.9174 52.3305 27.638C52.2374 27.3897 52.2064 27.1103 52.1132 26.8309C51.9891 26.5826 51.8649 26.3342 51.7407 26.0549C51.6476 25.8065 51.5234 25.5582 51.3993 25.2788C51.3061 25.0305 51.2441 24.7201 51.1509 24.4718C51.0578 24.1924 50.9026 23.944 50.7784 23.6957C50.6853 23.4163 50.5611 23.168 50.468 22.8886C50.3749 22.6403 50.3128 22.3609 50.2197 22.0815C50.1266 21.8332 50.0024 21.5538 49.9093 21.3055C49.8161 21.0261 49.692 20.7778 49.5678 20.4984C49.4747 20.2501 49.4437 19.9707 49.3195 19.6913C49.2264 19.443 49.0401 19.1947 48.947 18.9463C48.8539 18.667 48.7918 18.3876 48.6676 18.1393C48.5745 17.8599 48.5434 17.5805 48.4193 17.3322C48.3262 17.0528 48.1709 16.8355 48.0778 16.5872C47.9537 16.3078 47.8916 16.0284 47.7984 15.7801C47.6743 15.5007 47.5812 15.2524 47.488 15.0041C47.3639 14.7247 47.2397 14.4764 47.1155 14.228C47.0224 13.9176 46.8982 13.6693 46.8051 13.452C46.6499 13.1105 46.6499 12.8311 46.5568 12.6449C46.3705 12.2103 46.1532 12.0551 45.998 11.9309C45.7807 11.8068 45.5634 11.8378 45.1289 11.8378C44.8805 11.8689 44.7253 11.8689 44.446 12.3345C44.3218 12.5207 44.1045 12.738 43.9493 13.1416C43.8562 13.3278 43.8251 13.6072 43.701 13.9176C43.6078 14.1659 43.4837 14.3832 43.3595 14.6936C43.2664 14.9109 43.2043 15.1903 43.1112 15.4697C43.018 15.718 42.8939 15.9664 42.8007 16.2457C42.7076 16.4941 42.6145 16.7734 42.5214 17.0218C42.4282 17.2701 42.3041 17.5184 42.211 17.7978C42.1178 18.0461 42.1178 18.3566 42.0247 18.6049C41.9005 18.8532 41.7453 19.1016 41.6522 19.3499C41.5591 19.6293 41.528 19.9086 41.4039 20.157C41.3107 20.4363 41.1866 20.6536 41.0624 20.933C40.9693 21.1813 40.9072 21.4607 40.8141 21.709C40.721 21.9884 40.6278 22.2368 40.5347 22.5161C40.4416 22.7645 40.3485 23.0128 40.2553 23.2922C40.1622 23.5405 40.0691 23.8199 39.976 24.0682C39.8828 24.3165 39.6966 24.5649 39.6035 24.8132C39.5103 25.0615 39.5103 25.372 39.4172 25.6203C39.3241 25.8997 39.231 26.148 39.1378 26.3963C39.0447 26.6757 38.8585 26.893 38.7653 27.1413C38.6722 27.4207 38.6722 27.7001 38.5791 27.9484C38.486 28.2278 38.3618 28.4761 38.2687 28.7245C38.1755 29.0038 38.0514 29.2522 37.9583 29.5005C37.8651 29.7799 37.772 30.0592 37.7099 30.2765C37.5237 30.7422 37.4926 31.0215 37.4926 31.0526C37.4305 31.394 37.5547 31.4561 37.8341 31.4872C38.0203 31.4872 38.2376 31.4561 38.486 31.4561C38.8895 31.4872 39.1689 31.4251 39.4172 31.0215C39.4793 30.8974 39.6035 30.587 39.7276 30.2455C39.8207 29.9972 39.976 29.7488 40.0691 29.4384C40.1932 29.1901 40.2553 28.9107 40.3485 28.6313C40.4726 28.352 40.5347 28.0726 40.6278 27.8242C40.783 27.4517 40.8762 27.1413 40.9382 26.9861C41.0935 26.9861 41.4039 27.0482 41.7764 27.0792C42.0247 27.0792 42.3041 27.0172 42.5835 27.0482C42.8628 27.0482 43.1422 26.9861 43.4216 26.9861C43.6699 26.9861 43.9493 27.0792 44.2287 27.0792C44.508 27.0792 44.7874 27.0482 45.0668 27.0482C45.3151 27.0792 45.5945 27.0482 45.8739 27.0482C46.1532 27.0792 46.4326 27.0792 46.6809 27.0792C46.9914 27.0792 47.2397 27.0482 47.5191 27.0482C47.7984 27.0482 48.0778 27.0792 48.3262 27.0792C48.6366 27.0792 48.9159 27.0482 49.1332 27.0482C49.6299 27.0482 49.5989 26.893 49.9403 27.1413C50.2818 27.3897 50.0955 27.4207 50.2818 27.8863C50.3749 28.1347 50.437 28.414 50.5301 28.6934C50.6543 28.9417 50.7474 29.2211 50.8716 29.4695C50.9647 29.7488 51.1199 29.9972 51.213 30.2145C51.3682 30.587 51.4614 30.8663 51.4924 31.0215C51.5855 31.363 51.6786 31.4561 51.927 31.4872C52.1132 31.5182 52.3616 31.4561 52.672 31.4561C53.0134 31.4561 53.2618 31.4872 53.417 31.394C53.6343 31.3009 53.6964 31.1147 53.5722 30.7732ZM48.3572 25.434C48.1089 25.434 47.8295 25.372 47.5191 25.3409C47.2397 25.3409 46.9603 25.372 46.6499 25.3409C46.3705 25.3409 46.0912 25.403 45.8118 25.403C45.5324 25.403 45.253 25.403 44.9737 25.372C44.6632 25.372 44.3839 25.3099 44.1045 25.3099C43.8251 25.3099 43.5457 25.3099 43.2664 25.3099C42.956 25.3099 42.6766 25.3099 42.4282 25.3099C42.0557 25.2788 41.7453 25.3099 41.5591 25.3099C41.6212 25.1547 41.7143 24.8132 41.8385 24.4718C41.9316 24.2545 42.0557 23.9751 42.1799 23.6957C42.273 23.4474 42.3041 23.137 42.3972 22.8576C42.4903 22.6093 42.7076 22.3609 42.8007 22.0815C42.8939 21.8332 42.9249 21.5228 43.018 21.2434C43.1112 20.9951 43.2353 20.7468 43.3285 20.4674C43.4216 20.188 43.5147 19.9086 43.6078 19.6603C43.701 19.3809 43.7941 19.1016 43.8872 18.8532C43.9803 18.5738 44.0735 18.2945 44.1666 18.0461C44.2597 17.7668 44.3839 17.5184 44.477 17.2391C44.5701 16.9597 44.5701 16.6803 44.6632 16.432C44.7564 16.1216 44.9426 15.8732 45.0047 15.6559C45.1599 15.2834 45.222 14.973 45.3151 14.8178C45.4082 14.973 45.5324 15.2834 45.6876 15.6249C45.7807 15.8732 45.9049 16.1216 46.0291 16.432C46.1222 16.6803 46.2464 16.9286 46.3395 17.208C46.4326 17.4874 46.5257 17.7668 46.6499 18.0461C46.743 18.3255 46.8362 18.5738 46.9293 18.8532C47.0224 19.1326 47.0534 19.443 47.1466 19.7224C47.2397 20.0018 47.4259 20.2191 47.5191 20.4984C47.6122 20.7778 47.7053 21.0572 47.7984 21.3365C47.8916 21.5849 47.8916 21.8953 47.9847 22.1747C48.0778 22.454 48.233 22.7024 48.3262 22.9507C48.4193 23.2611 48.4814 23.5405 48.5745 23.7888C48.6987 24.0993 48.7607 24.3786 48.8539 24.5959C48.978 24.9684 49.1022 25.2478 49.1953 25.403C49.0091 25.403 48.7297 25.434 48.3572 25.434Z" fill="#FD5E59"/>
<path d="M69.878 14.0107C69.878 13.7003 69.847 13.4209 69.847 13.1726C69.847 12.738 69.8159 12.4276 69.7228 12.2414C69.5986 11.9309 69.3813 11.8068 68.9157 11.8378C68.6674 11.8689 68.3259 11.8999 67.9224 11.993C67.9224 12.1793 67.9845 12.4897 67.9845 12.8622C67.9534 13.0795 67.8913 13.3589 67.8603 13.6693C67.8603 13.9176 67.9224 14.197 67.9224 14.4764C67.9224 14.7557 67.8913 15.0351 67.8913 15.3145C67.8913 15.5939 67.8293 15.8422 67.8293 16.1216C67.8293 16.4009 67.8293 16.6803 67.8293 16.9597C67.7982 17.2391 67.7982 17.5184 67.7982 17.7668C67.7982 18.0461 67.8603 18.3255 67.8293 18.6049C67.8293 18.8843 67.7982 19.1636 67.7982 19.443C67.7672 19.6913 67.8603 19.9707 67.8603 20.2501C67.8603 20.5295 67.7982 20.8088 67.7982 21.0572C67.7672 21.3365 67.7982 21.6159 67.7982 21.8953C67.7982 22.1747 67.7361 22.454 67.7361 22.7024C67.7361 22.9818 67.7982 23.2611 67.7982 23.5405C67.7672 23.8199 67.7361 24.0993 67.7361 24.3476C67.7051 24.658 67.7361 24.9063 67.7361 25.1547C67.7361 25.4651 67.643 25.7445 67.612 25.9928C67.612 26.4895 67.643 26.8309 67.612 26.8309C67.3016 26.7999 67.0222 26.148 66.898 25.8997C66.7428 25.6513 66.6186 25.403 66.4634 25.1857C66.3393 24.9374 66.153 24.7201 65.9978 24.4718C65.8426 24.2234 65.7184 23.9751 65.5632 23.7578C65.408 23.5095 65.2838 23.2611 65.1286 23.0128C64.9734 22.7955 64.7561 22.5782 64.6009 22.3299C64.4457 22.1126 64.3216 21.8332 64.1663 21.6159C64.0111 21.3676 63.8559 21.1503 63.7007 20.902C63.5145 20.6847 63.2972 20.4984 63.142 20.2501C62.9557 20.0328 62.8005 19.8155 62.6453 19.5672C62.4591 19.3499 62.3659 19.0705 62.2107 18.8222C62.0555 18.6049 61.8072 18.4186 61.652 18.1703C61.4968 17.953 61.3416 17.7357 61.1864 17.4874C61.0311 17.2701 60.8759 17.0218 60.7207 16.7734C60.5655 16.5561 60.4414 16.3078 60.2861 16.0595C60.1309 15.8111 59.9757 15.5939 59.8205 15.3455C59.6653 15.1282 59.5411 14.8489 59.417 14.6316C59.2618 14.3832 59.0445 14.1659 58.8893 13.9486C58.7341 13.7003 58.6099 13.4209 58.4857 13.2036C58.3305 12.9553 58.1443 12.738 58.0201 12.4897C57.8339 12.1793 57.7097 12.0241 57.4924 11.9309C57.3062 11.8689 57.0889 11.8689 56.7164 11.8999C55.9403 11.8689 56.0024 11.7757 55.9714 12.3034C55.9714 12.4897 55.9714 12.7691 55.9714 13.1416C55.9714 13.3899 55.9714 13.6693 55.9714 13.9797C55.9714 14.228 55.8782 14.5074 55.8782 14.8178C55.8782 15.0661 55.9403 15.3455 55.9403 15.6559C55.9403 15.9353 55.9714 16.2147 55.9714 16.4941C55.9714 16.7734 55.8782 17.0528 55.8782 17.3322C55.8782 17.6116 55.9093 17.8909 55.9093 18.1703C55.9093 18.4497 55.8782 18.7291 55.8782 19.0395C55.9093 19.3188 55.9403 19.5982 55.9403 19.8776C55.9403 20.157 55.9714 20.4363 55.9714 20.7157C55.9714 20.9951 55.9403 21.2745 55.9403 21.5538C55.9403 21.8332 55.8782 22.1126 55.8782 22.392C55.8782 22.6713 55.9714 22.9507 55.9714 23.2301C55.9714 23.5095 55.9714 23.7888 55.9714 24.0682C55.9714 24.3476 55.9403 24.627 55.9403 24.9063C55.9403 25.2168 55.9714 25.4961 55.9714 25.7445C55.9714 26.0859 55.9714 26.3653 55.9714 26.5826C55.9714 26.8309 55.9403 27.1103 55.9403 27.3897C55.9403 27.669 55.9714 27.9484 55.9714 28.2278C55.9714 28.5072 55.8782 28.7865 55.8782 29.0349C55.8782 29.3142 55.9714 29.5936 55.9714 29.873C55.9714 30.1524 55.9093 30.4317 55.9093 30.7111C55.9093 31.0526 56.2197 31.2699 56.5922 31.363C56.9337 31.4561 57.3062 31.4872 57.6166 31.4872C58.2374 31.5182 57.958 31.363 57.9891 30.6801C57.9891 30.4938 57.9891 30.2455 57.9891 29.9972C57.9891 29.7178 57.9891 29.4695 57.958 29.2832C57.958 29.0659 57.927 28.7865 57.927 28.414C57.927 28.1657 57.927 27.8863 57.927 27.5449C57.927 27.2965 57.8959 26.9861 57.8959 26.7067C57.8959 26.4274 57.8959 26.117 57.8959 25.8376C57.8959 25.5582 57.8959 25.2788 57.8959 24.9684C57.8959 24.689 57.8959 24.4097 57.8959 24.0993C57.8959 23.8199 57.8959 23.5405 57.8959 23.2301C57.8959 22.9507 57.8959 22.6713 57.8959 22.392C57.8959 22.0815 57.8649 21.8022 57.8649 21.5228C57.8649 21.2434 57.8959 20.933 57.8959 20.6536C57.8959 20.3743 57.9891 20.0949 57.9891 19.8155C57.9891 19.5051 57.927 19.2257 57.927 18.9463C57.927 18.6359 57.927 18.3566 57.927 18.0772C57.927 17.7357 57.927 17.4253 57.927 17.2391C57.927 17.0218 57.8339 16.7424 58.0512 16.7734C58.1443 16.8045 58.3305 17.0218 58.5168 17.3322C58.6099 17.5184 58.7341 17.7668 58.8582 17.9841C58.9824 18.2013 59.0755 18.4497 59.1686 18.6359C59.2618 18.7911 59.448 19.0084 59.6343 19.3188C59.7895 19.5051 59.9447 19.7224 60.1309 20.0018C60.2551 20.2191 60.3482 20.4984 60.5034 20.7157C60.6586 20.964 60.907 21.1193 61.0622 21.3676C61.2174 21.5849 61.3416 21.8332 61.5278 22.0505C61.652 22.2988 61.7761 22.5472 61.9314 22.7955C62.0866 23.0128 62.3039 23.199 62.4591 23.4163C62.6143 23.6647 62.7074 23.944 62.8626 24.1924C63.0178 24.4097 63.173 24.627 63.3282 24.8443C63.4834 25.0926 63.7007 25.2788 63.8559 25.4961C64.0111 25.7445 64.1353 25.9928 64.2905 26.2101C64.4457 26.4584 64.663 26.6447 64.8182 26.862C64.9734 27.1103 65.0976 27.3586 65.2528 27.5759C65.408 27.8242 65.5011 28.0726 65.6563 28.2899C65.8426 28.5382 66.0288 28.7555 66.153 28.9417C66.3393 29.2211 66.4945 29.4384 66.6186 29.6557C66.8049 29.9351 66.9291 30.2145 67.0222 30.3697C67.2395 30.6801 67.4878 30.9284 67.7361 31.1147C67.9845 31.3009 68.2638 31.4251 68.6984 31.4251C69.102 31.4251 69.2572 31.4251 69.3503 31.3009C69.4745 31.1767 69.4434 30.9905 69.4434 30.618C69.4745 30.4007 69.5055 30.1213 69.5365 29.8109C69.5365 29.5626 69.5055 29.2832 69.5055 28.9728C69.5055 28.6934 69.5676 28.4451 69.5986 28.1347C69.5986 27.8863 69.5676 27.607 69.5986 27.2965C69.5986 27.0482 69.5986 26.7688 69.6297 26.4584C69.6297 26.2101 69.5986 25.9307 69.5986 25.6513C69.6297 25.372 69.6297 25.0926 69.6297 24.8132C69.6297 24.5338 69.6297 24.2545 69.6297 23.9751C69.6297 23.6957 69.6607 23.4163 69.6607 23.137C69.6918 22.8576 69.6607 22.5782 69.6607 22.2988C69.6918 22.0195 69.7538 21.7401 69.7538 21.4607C69.7538 21.1813 69.6918 20.933 69.7228 20.6536C69.7228 20.3743 69.7228 20.0949 69.7228 19.8155C69.7228 19.5361 69.7849 19.2568 69.7849 18.9774C69.7849 18.698 69.7228 18.4186 69.7538 18.1703C69.7538 17.8599 69.8159 17.6116 69.8159 17.3322C69.8159 17.0528 69.847 16.7734 69.847 16.4941C69.847 16.2147 69.7849 15.9353 69.7849 15.6559C69.7849 15.3766 69.878 15.0972 69.878 14.8489C69.878 14.5384 69.878 14.2591 69.878 14.0107Z" fill="#FDE345"/>
<path d="M84.981 25.4651C84.9499 25.1547 84.8568 24.8753 84.7637 24.5959C84.6395 24.3165 84.5774 24.0372 84.4222 23.7888C84.267 23.5405 84.0808 23.2922 83.8945 23.0749C83.7083 22.8576 83.4599 22.6713 83.2426 22.4851C83.0253 22.2988 82.8081 22.0815 82.5597 21.9263C82.3114 21.7711 82.032 21.6159 81.7837 21.4918C81.4733 21.3676 81.1939 21.2745 80.9766 21.2124C80.6662 21.1193 80.3868 20.9951 80.1695 20.933C79.8591 20.8088 79.6108 20.6847 79.3935 20.5916C79.0831 20.4984 78.8347 20.4053 78.6174 20.3122C78.4312 20.2501 78.1518 20.188 77.8414 20.0638C77.6241 19.9707 77.3447 19.8776 77.0654 19.7534C76.8481 19.6293 76.6308 19.443 76.4135 19.2568C76.1962 19.1016 75.9789 18.9463 75.7926 18.7291C75.6064 18.5428 75.4822 18.2945 75.3581 18.0461C75.2649 17.7978 75.1718 17.5184 75.1718 17.2391C75.1718 16.9597 75.2029 16.6803 75.2339 16.4009C75.296 16.1216 75.3891 15.8732 75.5133 15.6249C75.6064 15.3766 75.7306 15.1282 75.8858 14.9109C76.041 14.6936 76.2583 14.5074 76.4445 14.3522C76.6618 14.1659 76.8481 13.9486 77.0964 13.8245C77.3447 13.7003 77.5931 13.6382 77.8724 13.5761C78.1208 13.5141 78.4001 13.4209 78.6795 13.4209C78.9278 13.4209 79.2072 13.452 79.4556 13.5141C79.7039 13.5451 79.9522 13.6072 80.2006 13.7003C80.4489 13.7934 80.6972 13.8866 80.9145 14.0107C81.1628 14.1349 81.3801 14.2901 81.5974 14.4143C81.8147 14.5695 82.032 14.7247 82.2183 14.8799C82.4666 15.0661 82.5908 15.3145 82.746 15.4697C82.9943 15.7491 83.2426 15.8111 83.491 15.8111C83.7393 15.7801 83.9255 15.6559 84.2049 15.3766C84.4222 15.1903 84.8878 14.8178 84.6705 14.5074C84.5153 14.2591 84.3291 14.0728 84.2049 13.8555C84.0497 13.6382 83.8945 13.452 83.6772 13.2347C83.553 13.1416 83.3047 12.9864 82.9322 12.7691C82.7149 12.6139 82.4666 12.4897 82.1562 12.3345C81.9078 12.2414 81.6595 12.0861 81.3491 11.993C81.1008 11.8999 80.8214 11.7757 80.511 11.7136C80.2316 11.6516 79.9212 11.6826 79.6108 11.6516C79.3314 11.6205 79.021 11.6205 78.7106 11.6205C78.4312 11.6205 78.1518 11.6205 77.8414 11.6516C77.562 11.7136 77.2826 11.7757 77.0033 11.8689C76.7239 11.962 76.4756 12.1172 76.2272 12.2414C75.9479 12.3966 75.6995 12.5207 75.4512 12.707C75.2339 12.8622 75.0166 13.0795 74.7993 13.2968C74.6131 13.483 74.3647 13.6693 74.1785 13.9176C74.0233 14.1349 73.9301 14.4453 73.806 14.6936C73.6818 14.973 73.5266 15.2214 73.4335 15.5007C73.3404 15.7801 73.2783 16.0595 73.2472 16.3699C73.1852 16.6493 73.1541 16.9286 73.1541 17.2391C73.1541 17.5495 73.2162 17.8288 73.2472 18.0772C73.3093 18.3876 73.3404 18.667 73.4335 18.9153C73.5576 19.1947 73.6818 19.4741 73.806 19.6913C73.9612 19.9397 74.1785 20.157 74.3647 20.3743C74.551 20.5605 74.7683 20.7778 74.9856 20.933C75.2029 21.1193 75.4822 21.2434 75.6995 21.3676C75.9789 21.5228 76.2272 21.647 76.4756 21.7401C76.786 21.8953 77.0343 21.9884 77.2826 22.0505C77.4999 22.1436 77.7483 22.2368 77.9656 22.2988C78.2139 22.392 78.4622 22.4851 78.6795 22.5472C78.9278 22.6403 79.1762 22.7334 79.3935 22.7955C79.6418 22.8886 79.8591 22.9818 80.1074 23.0749C80.2626 23.137 80.4799 23.2611 80.7903 23.4163C81.0076 23.5405 81.1939 23.7268 81.4422 23.882C81.6285 24.0061 81.8768 24.1303 82.0631 24.3165C82.2803 24.4718 82.4356 24.689 82.5908 24.9063C82.746 25.0926 82.8701 25.3409 82.9633 25.5893C83.0253 25.8065 83.0874 26.0549 83.0874 26.3342C83.0874 26.6447 83.0564 26.924 82.9943 27.2034C82.9322 27.4828 82.777 27.7311 82.6218 28.0105C82.4666 28.2588 82.2803 28.4451 82.0941 28.6624C81.8768 28.8797 81.6595 29.0659 81.4112 29.2211C81.1628 29.3763 80.9145 29.5005 80.6351 29.5936C80.3558 29.6867 80.0764 29.7799 79.797 29.842C79.5176 29.873 79.2383 29.904 78.9278 29.904C78.6174 29.904 78.307 29.904 78.0276 29.842C77.7483 29.7799 77.4689 29.6247 77.2206 29.5005C76.9412 29.3763 76.6618 29.2522 76.4445 29.097C76.1962 28.9107 76.0099 28.6624 75.7926 28.4451C75.5754 28.2278 75.327 28.0726 75.1408 27.8553C74.8924 27.5759 74.7062 27.3276 74.582 27.2034C74.3337 26.924 74.1785 26.8309 73.9922 26.893C73.837 26.924 73.6197 26.9861 73.3714 27.2034C73.1231 27.4207 72.9679 27.5759 72.8437 27.7311C72.7195 27.9174 72.7195 28.1036 72.9679 28.414C73.0299 28.5072 73.1541 28.7555 73.4024 29.0659C73.5266 29.2522 73.7439 29.4384 73.9301 29.6557C74.1164 29.842 74.3026 30.0282 74.5199 30.2145C74.7062 30.3697 74.9545 30.4628 75.1718 30.618C75.3891 30.7732 75.5754 30.9905 75.8237 31.1147C76.041 31.2078 76.3204 31.2699 76.5997 31.3319C76.817 31.4251 77.0654 31.5803 77.3137 31.6424C77.562 31.7044 77.8414 31.7355 78.1208 31.7665C78.3691 31.7665 78.6485 31.7665 78.9278 31.7665C79.2072 31.7665 79.4866 31.7355 79.7349 31.7044C80.0453 31.6734 80.2937 31.6424 80.5731 31.5803C80.8524 31.5182 81.1008 31.4561 81.3801 31.363C81.6285 31.2699 81.9078 31.1767 82.1562 31.0526C82.4045 30.9284 82.5908 30.7111 82.8081 30.5559C83.0253 30.4007 83.3047 30.2765 83.491 30.0903C83.7083 29.873 83.8635 29.6557 84.0187 29.4384C84.1739 29.2211 84.3601 29.0038 84.5153 28.7555C84.6395 28.5072 84.7637 28.2588 84.8258 27.9795C84.9189 27.7311 84.981 27.4517 85.012 27.1724C85.0741 26.893 85.1051 26.6136 85.1051 26.3342C85.1051 26.0238 85.043 25.7445 84.981 25.4651Z" fill="#28F79D"/>
<path d="M101.87 18.5738C101.87 18.2945 101.777 18.0151 101.777 17.7357C101.777 17.4563 101.808 17.177 101.808 16.8976C101.808 16.6182 101.746 16.3388 101.746 16.0595C101.746 15.7801 101.87 15.5007 101.87 15.2214C101.87 14.942 101.87 14.6626 101.87 14.4143C101.87 14.0728 101.87 13.7934 101.87 13.5761C101.87 13.2968 101.839 12.8932 101.808 12.6139C101.746 12.3034 101.59 12.1482 101.373 12.0551C101.156 11.962 100.907 11.962 100.628 12.0241C100.287 12.0861 99.8831 12.1172 99.79 12.4586C99.6969 12.6449 99.759 12.9553 99.759 13.2968C99.79 13.5761 99.8521 13.8866 99.8521 14.1039C99.8521 14.2591 99.759 14.5695 99.759 14.942C99.759 15.1903 99.8831 15.4697 99.8831 15.7491C99.8831 16.0284 99.8521 16.3078 99.8521 16.5872C99.8521 16.8666 99.79 17.1459 99.79 17.4253C99.79 17.7047 99.8831 17.9841 99.8831 18.2324C99.8831 18.5428 99.759 18.7911 99.759 19.0705C99.759 19.3809 99.79 19.6293 99.79 19.8776C99.79 20.2501 99.8521 20.5605 99.8521 20.7468C99.7279 20.7468 99.4175 20.7157 99.045 20.7468C98.8277 20.7468 98.5483 20.8088 98.269 20.8088C98.0206 20.8088 97.7723 20.7778 97.524 20.7778C97.2446 20.7778 96.9963 20.7157 96.7479 20.7157C96.3754 20.7157 96.065 20.7468 96.0029 20.7468C95.8167 20.7778 95.5373 20.7468 95.1958 20.7778C94.9475 20.7778 94.6681 20.7157 94.3577 20.7468C94.1094 20.7468 93.83 20.8399 93.5506 20.8399C93.2713 20.8399 92.9919 20.8399 92.7125 20.8709C92.4331 20.8709 92.1538 20.8399 91.9054 20.8399C91.595 20.8399 91.3156 20.8399 91.0983 20.8399C90.7569 20.8399 90.4775 20.8088 90.2602 20.8088C90.2602 20.6536 90.2292 20.3743 90.2292 20.0018C90.2292 19.7534 90.3223 19.4741 90.3223 19.1947C90.3223 18.9153 90.1981 18.667 90.1981 18.3566C90.1981 18.1082 90.2292 17.8288 90.2292 17.5495C90.2292 17.2701 90.1671 16.9907 90.1671 16.7424C90.1671 16.432 90.2602 16.1836 90.2602 15.9353C90.2602 15.5628 90.1671 15.2834 90.1671 15.1282C90.1361 14.8799 90.1671 14.5695 90.1671 14.2901C90.1671 14.0107 90.1361 13.7314 90.105 13.452C90.105 13.1416 90.105 12.8622 90.074 12.6139C90.074 12.3034 89.9808 12.1482 89.7946 12.0861C89.6394 12.0241 89.4531 11.962 89.1738 11.962C88.8944 11.9309 88.7081 12.0241 88.5219 12.0861C88.3356 12.1482 88.1804 12.2103 88.1494 12.5207C88.1183 12.738 88.2115 13.3278 88.2115 13.5451C88.2115 13.7624 88.1494 14.0728 88.1494 14.3832C88.1494 14.6626 88.1804 14.942 88.1804 15.2524C88.1804 15.5318 88.2115 15.8111 88.2115 16.1216C88.2115 16.4009 88.2115 16.6803 88.2115 16.9597C88.2115 17.2701 88.2115 17.5495 88.2115 17.8288C88.2115 18.1082 88.1494 18.4186 88.1494 18.698C88.1494 18.9774 88.2425 19.2568 88.2425 19.5672C88.2425 19.8466 88.2425 20.1259 88.2425 20.4363C88.2425 20.7157 88.1494 20.9951 88.1494 21.2745C88.1494 21.5849 88.2425 21.8643 88.2425 22.1436C88.2425 22.423 88.2115 22.7334 88.2115 23.0128C88.2115 23.2922 88.1804 23.5715 88.1804 23.8509C88.1804 24.1613 88.2115 24.4407 88.2115 24.7201C88.2115 25.0305 88.2736 25.3099 88.2736 25.5893C88.2736 25.8686 88.1804 26.179 88.1804 26.4584C88.1804 26.7378 88.2115 27.0172 88.2115 27.2965C88.2115 27.607 88.2736 27.8863 88.2736 28.1657C88.2736 28.4761 88.2736 28.7555 88.2736 29.0349C88.2736 29.3453 88.2115 29.6557 88.2115 29.873C88.2115 30.1834 88.2425 30.4628 88.2736 30.6801C88.3046 31.0526 88.3977 31.3009 88.5219 31.4251C88.7081 31.6424 88.9254 31.6113 89.2669 31.5803C89.6083 31.5803 89.8256 31.5492 89.9498 31.394C90.105 31.2388 90.2292 30.9905 90.2292 30.7111C90.2602 30.4628 90.1981 30.1834 90.1981 29.9661C90.1981 29.7799 90.1981 29.4695 90.1981 29.097C90.1981 28.8176 90.1981 28.5072 90.1981 28.1967C90.1981 27.9174 90.1671 27.607 90.1671 27.3276C90.1671 27.0172 90.2913 26.7378 90.2913 26.4274C90.2913 26.117 90.1981 25.8376 90.1981 25.5582C90.1981 25.2478 90.2602 24.9374 90.2602 24.658C90.2602 24.3476 90.2292 24.0372 90.2602 23.7888C90.2602 23.4163 90.2602 23.1059 90.2913 22.9197C90.4775 22.9197 90.7569 22.8886 91.1294 22.8886C91.3777 22.8886 91.6881 22.8886 91.9986 22.8886C92.2779 22.8886 92.5883 22.9507 92.8677 22.9507C93.1781 22.9507 93.4575 22.9197 93.7679 22.9197C94.0473 22.9197 94.3267 22.9507 94.6371 22.9507C94.9165 22.9507 95.2269 22.9507 95.5063 22.9507C95.8167 22.9507 96.096 22.9197 96.4065 22.9197C96.6858 22.9197 96.9963 22.9818 97.2756 22.9818C97.586 22.9818 97.8654 22.8886 98.1448 22.8886C98.4552 22.8886 98.7346 22.9818 99.014 22.9818C99.3865 22.9818 99.6658 22.9818 99.8521 22.9818C99.8521 23.137 99.9142 23.3853 99.9452 23.7268C99.9452 23.9751 99.8831 24.2545 99.8831 24.5338C99.8831 24.7822 99.8831 25.0615 99.8831 25.3409C99.8831 25.5893 99.9762 25.8686 99.9762 26.117C99.9762 26.3963 99.9142 26.6447 99.9142 26.924C99.9142 27.2034 99.8831 27.4517 99.8831 27.7001C99.9142 27.9795 100.007 28.2588 100.007 28.4761C100.007 28.8486 99.9142 29.128 99.9142 29.2832C99.9142 29.5315 100.007 29.7799 100.007 30.0282C100.038 30.2765 100.007 30.5249 100.038 30.7732C100.038 31.0836 100.1 31.2699 100.225 31.394C100.38 31.5182 100.566 31.6113 100.845 31.6113C101.125 31.6424 101.311 31.5803 101.466 31.4561C101.621 31.363 101.777 31.2078 101.777 30.8974C101.808 30.6801 101.808 30.4628 101.808 30.2455C101.808 29.9972 101.746 29.7178 101.746 29.4074C101.746 29.159 101.808 28.8797 101.808 28.5692C101.808 28.3209 101.777 28.0415 101.777 27.7311C101.777 27.4828 101.746 27.2034 101.746 26.924C101.746 26.6447 101.746 26.3653 101.746 26.0859C101.746 25.8065 101.746 25.5272 101.746 25.2478C101.746 24.9684 101.808 24.689 101.808 24.4097C101.808 24.1303 101.839 23.8509 101.839 23.5715C101.839 23.2922 101.808 23.0128 101.808 22.7334C101.808 22.454 101.746 22.1747 101.746 21.8953C101.746 21.6159 101.808 21.3365 101.808 21.0572C101.808 20.7778 101.746 20.4984 101.746 20.2191C101.746 19.9397 101.87 19.6603 101.87 19.412C101.87 19.1016 101.87 18.8532 101.87 18.5738Z" fill="#009AFF"/>
<path d="M13.6995 8.64728L14.521 13.9605L9.55395 12.1452L13.6995 8.64728Z" fill="#2DF69F"/>
<path d="M16.2346 9.20394L22.0323 6.74111L21.5498 12.5595L16.2346 9.20394Z" fill="#FBE449"/>
<path d="M15.469 6.8094L13.8284 3.2372L17.5619 3.47398L15.469 6.8094Z" fill="#FD5E59"/>
<path d="M12.1118 6.92904L9.08679 7.47799L9.95871 4.76685L12.1118 6.92904Z" fill="#009AFF"/>
</svg>
