<svg width="69" height="30" viewBox="0 0 69 30" fill="none" xmlns="http://www.w3.org/2000/svg">
<rect width="68.8372" height="30" rx="3.13953" fill="#0A2540"/>
<path d="M22.1761 16.7643C22.1761 17.3817 21.9532 17.8757 21.5072 18.2461C21.0682 18.6098 20.4884 18.7916 19.7681 18.7916C18.986 18.7916 18.3377 18.6441 17.8232 18.3491V17.0216C18.4132 17.4469 19.058 17.6596 19.7578 17.6596C20.0734 17.6596 20.3272 17.5841 20.5193 17.4332C20.7114 17.2754 20.8075 17.0661 20.8075 16.8054C20.8075 16.682 20.7834 16.5722 20.7354 16.4761C20.6874 16.3801 20.5879 16.2841 20.437 16.188C20.2929 16.092 20.1797 16.0234 20.0974 15.9822C20.0219 15.941 19.8607 15.8656 19.6137 15.7558C19.5451 15.7215 19.4937 15.6975 19.4594 15.6838C19.2055 15.5671 18.9997 15.4642 18.8419 15.375C18.6841 15.279 18.5126 15.1521 18.3274 14.9943C18.1422 14.8365 18.0015 14.6478 17.9055 14.4283C17.8163 14.2088 17.7717 13.9584 17.7717 13.6771C17.7717 13.0871 17.9878 12.6137 18.42 12.257C18.8591 11.9002 19.4388 11.7218 20.1591 11.7218C20.8109 11.7218 21.3734 11.835 21.8468 12.0614V13.3169C21.3323 13.0082 20.7834 12.8538 20.2003 12.8538C19.8779 12.8538 19.624 12.9259 19.4388 13.0699C19.2604 13.214 19.1712 13.3992 19.1712 13.6256C19.1712 13.852 19.2673 14.0407 19.4594 14.1916C19.6583 14.3357 19.9533 14.4969 20.3444 14.6753C20.6188 14.7988 20.8418 14.9085 21.0133 15.0046C21.1848 15.0938 21.37 15.2207 21.569 15.3853C21.7748 15.55 21.9257 15.7489 22.0218 15.9822C22.1247 16.2086 22.1761 16.4693 22.1761 16.7643ZM24.3431 18.7092H23.1082V13.4918H24.3431V18.7092ZM24.4666 11.9277C24.4666 12.1403 24.3946 12.3187 24.2505 12.4628C24.1064 12.6068 23.9315 12.6789 23.7257 12.6789C23.5199 12.6789 23.3449 12.6068 23.2008 12.4628C23.0568 12.3187 22.9847 12.1403 22.9847 11.9277C22.9847 11.7218 23.0568 11.5469 23.2008 11.4028C23.3449 11.2588 23.5199 11.1867 23.7257 11.1867C23.9315 11.1867 24.1064 11.2588 24.2505 11.4028C24.3946 11.5469 24.4666 11.7218 24.4666 11.9277ZM30.1241 18.2359C30.1241 19.0591 29.884 19.6766 29.4037 20.0882C28.9304 20.5067 28.3266 20.7159 27.5926 20.7159C26.9065 20.7159 26.3062 20.5924 25.7917 20.3454V19.09C26.2582 19.4193 26.8173 19.5839 27.4691 19.5839C28.4158 19.5839 28.8892 19.1311 28.8892 18.2256V17.7728C28.5736 18.2873 28.0797 18.5446 27.4073 18.5446C26.8242 18.5446 26.3234 18.3319 25.9049 17.9066C25.4933 17.4743 25.2874 16.85 25.2874 16.0336C25.2874 15.279 25.483 14.6581 25.874 14.171C26.2719 13.6771 26.7933 13.4301 27.4382 13.4301C28.0899 13.4301 28.5736 13.7011 28.8892 14.2431V13.4918H30.1241V18.2359ZM26.5738 16.0336C26.5738 16.5207 26.6801 16.8946 26.8928 17.1553C27.1055 17.4092 27.3765 17.5361 27.7058 17.5361C28.0419 17.5361 28.3232 17.4057 28.5496 17.145C28.776 16.8775 28.8892 16.531 28.8892 16.1057C28.8892 15.55 28.7794 15.1418 28.5599 14.8811C28.3404 14.6204 28.0625 14.49 27.7263 14.49C27.3696 14.49 27.0883 14.6307 26.8825 14.912C26.6767 15.1864 26.5738 15.5603 26.5738 16.0336ZM35.7252 18.7092H34.4903V15.4985C34.4903 15.1555 34.408 14.8982 34.2433 14.7267C34.0787 14.5484 33.8557 14.4592 33.5744 14.4592C33.252 14.4592 32.981 14.5861 32.7615 14.8399C32.5419 15.0869 32.4322 15.4436 32.4322 15.9102V18.7092H31.1973V13.4918H32.4322V14.3871C32.7272 13.7491 33.2623 13.4301 34.0375 13.4301C34.5589 13.4301 34.9705 13.5879 35.2724 13.9035C35.5743 14.2191 35.7252 14.665 35.7252 15.2413V18.7092ZM44.5904 16.0439C44.5904 16.9427 44.3468 17.6287 43.8597 18.1021C43.3795 18.5686 42.7175 18.8018 41.8736 18.8018C41.0504 18.8018 40.3918 18.572 39.8978 18.1124C39.4107 17.6459 39.1672 16.9804 39.1672 16.116V11.7733H40.4638V16.1057C40.4638 16.6339 40.5942 17.0181 40.8549 17.2582C41.1156 17.4915 41.4552 17.6081 41.8736 17.6081C42.8204 17.6081 43.2938 17.0902 43.2938 16.0542V11.7733H44.5904V16.0439ZM46.9694 20.6748H45.7345V13.4918H46.9694V14.2945C47.3399 13.7114 47.8715 13.4198 48.5644 13.4198C49.2436 13.4198 49.7822 13.6634 50.1801 14.1504C50.5849 14.6375 50.7872 15.279 50.7872 16.0748C50.7872 16.8569 50.5849 17.5052 50.1801 18.0198C49.7822 18.5274 49.2402 18.7813 48.5542 18.7813C47.8544 18.7813 47.3261 18.4966 46.9694 17.9271V20.6748ZM47.3604 14.8708C47.0997 15.1384 46.9694 15.5363 46.9694 16.0645C46.9694 16.5928 47.0963 17.001 47.3501 17.2891C47.604 17.5773 47.9093 17.7213 48.266 17.7213C48.6365 17.7213 48.9383 17.5807 49.1716 17.2994C49.4049 17.0113 49.5215 16.6099 49.5215 16.0954C49.5215 15.5809 49.4049 15.1829 49.1716 14.9017C48.9383 14.6135 48.6433 14.4695 48.2866 14.4695C47.9299 14.4695 47.6211 14.6032 47.3604 14.8708Z" fill="white"/>
</svg>
