<svg width="11" height="11" viewBox="0 0 11 11" fill="none" xmlns="http://www.w3.org/2000/svg">
<path d="M5.5 0C2.46272 0 0 2.46272 0 5.5C0 8.53728 2.46272 11 5.5 11C8.53728 11 11 8.53728 11 5.5C11 2.46272 8.53728 0 5.5 0ZM5.5 10.067C2.97835 10.067 0.933036 8.02165 0.933036 5.5C0.933036 2.97835 2.97835 0.933036 5.5 0.933036C8.02165 0.933036 10.067 2.97835 10.067 5.5C10.067 8.02165 8.02165 10.067 5.5 10.067ZM5.56875 3.52712C6.21942 3.52712 6.66138 3.94208 6.71049 4.551C6.71417 4.60257 6.75714 4.64185 6.8087 4.64185H7.5048C7.53672 4.64185 7.5625 4.61607 7.5625 4.58415C7.5625 3.51975 6.72277 2.77455 5.56507 2.77455C4.21585 2.77455 3.4375 3.68549 3.4375 5.19062V5.8327C3.4375 7.32679 4.21585 8.22545 5.56507 8.22545C6.71908 8.22545 7.5625 7.50357 7.5625 6.48951C7.5625 6.45759 7.53672 6.43181 7.5048 6.43181H6.80748C6.75591 6.43181 6.71417 6.47109 6.70926 6.52143C6.6577 7.08739 6.21696 7.47656 5.56752 7.47656C4.76585 7.47656 4.31406 6.8885 4.31406 5.83638V5.19062C4.31529 4.12254 4.7683 3.52712 5.56875 3.52712Z" fill="#F5F5F5"/>
</svg>
